<?xml version="1.0" encoding="UTF-8" standalone="no"?>
<!-- Created with Inkscape (http://www.inkscape.org/) -->

<svg
   xmlns:dc="http://purl.org/dc/elements/1.1/"
   xmlns:cc="http://creativecommons.org/ns#"
   xmlns:rdf="http://www.w3.org/1999/02/22-rdf-syntax-ns#"
   xmlns:svg="http://www.w3.org/2000/svg"
   xmlns="http://www.w3.org/2000/svg"
   xmlns:sodipodi="http://sodipodi.sourceforge.net/DTD/sodipodi-0.dtd"
   xmlns:inkscape="http://www.inkscape.org/namespaces/inkscape"
   width="608.43585mm"
   height="215.145mm"
   viewBox="0 0 2155.8751 762.32482"
   id="svg2"
   version="1.1"
   inkscape:version="0.92.2 2405546, 2018-03-11"
   sodipodi:docname="Äpfel_und_Birnen.svg">
  <defs
     id="defs4">
    <marker
       inkscape:stockid="DotS"
       orient="auto"
       refY="0"
       refX="0"
       id="DotS"
       style="overflow:visible"
       inkscape:isstock="true">
      <path
         id="path4296"
         d="m -2.5,-1 c 0,2.76 -2.24,5 -5,5 -2.76,0 -5,-2.24 -5,-5 0,-2.76 2.24,-5 5,-5 2.76,0 5,2.24 5,5 z"
         style="fill:#000000;fill-opacity:1;fill-rule:evenodd;stroke:#000000;stroke-width:1.00000003pt;stroke-opacity:1"
         transform="matrix(0.2,0,0,0.2,1.48,0.2)"
         inkscape:connector-curvature="0" />
    </marker>
    <marker
       style="overflow:visible"
       id="marker5918"
       refX="0"
       refY="0"
       orient="auto"
       inkscape:stockid="DistanceStart"
       inkscape:isstock="true">
      <g
         id="g5920"
         style="fill:#000000;fill-opacity:1;stroke:#000000;stroke-opacity:1">
        <path
           style="fill:#000000;fill-opacity:1;stroke:#000000;stroke-width:1.14999998;stroke-linecap:square;stroke-opacity:1"
           d="M 0,0 H 2"
           id="path5922"
           inkscape:connector-curvature="0" />
        <path
           style="fill:#000000;fill-opacity:1;fill-rule:evenodd;stroke:#000000;stroke-opacity:1"
           d="M 0,0 13,4 9,0 13,-4 Z"
           id="path5924"
           inkscape:connector-curvature="0" />
        <path
           style="fill:#000000;fill-opacity:1;stroke:#000000;stroke-width:1;stroke-linecap:square;stroke-opacity:1"
           d="M 0,-4 V 40"
           id="path5926"
           inkscape:connector-curvature="0" />
      </g>
    </marker>
    <marker
       style="overflow:visible"
       id="DistanceStart"
       refX="0"
       refY="0"
       orient="auto"
       inkscape:stockid="DistanceStart"
       inkscape:isstock="true">
      <g
         id="g2300"
         style="fill:#000000;fill-opacity:1;stroke:#000000;stroke-opacity:1">
        <path
           style="fill:#000000;fill-opacity:1;stroke:#000000;stroke-width:1.14999998;stroke-linecap:square;stroke-opacity:1"
           d="M 0,0 H 2"
           id="path2306"
           inkscape:connector-curvature="0" />
        <path
           style="fill:#000000;fill-opacity:1;fill-rule:evenodd;stroke:#000000;stroke-opacity:1"
           d="M 0,0 13,4 9,0 13,-4 Z"
           id="path2302"
           inkscape:connector-curvature="0" />
        <path
           style="fill:#000000;fill-opacity:1;stroke:#000000;stroke-width:1;stroke-linecap:square;stroke-opacity:1"
           d="M 0,-4 V 40"
           id="path2304"
           inkscape:connector-curvature="0" />
      </g>
    </marker>
    <marker
       inkscape:stockid="Legs"
       orient="auto"
       refY="0"
       refX="0"
       id="Legs"
       style="overflow:visible"
       inkscape:isstock="true">
      <g
         id="g4428"
         transform="scale(-0.7)"
         style="fill:#000000;fill-opacity:1;stroke:#000000;stroke-opacity:1">
        <g
           id="g4430"
           transform="matrix(0,-1,-1,0,20.70862,21.31391)"
           style="fill:#000000;fill-opacity:1;stroke:#000000;stroke-opacity:1">
          <path
             id="path4432"
             d="m 21.22125,20.67536 c -6.910151,4.721157 -2.454525,6.606844 -5.841071,13.443235"
             style="fill:#000000;fill-opacity:1;fill-rule:evenodd;stroke:#000000;stroke-width:1.00000003pt;stroke-opacity:1"
             inkscape:connector-curvature="0" />
          <path
             id="path4434"
             d="m 21.39811,20.54812 c -1.360509,8.347524 3.536072,8.76994 4.505041,13.824958"
             style="fill:#000000;fill-opacity:1;fill-rule:evenodd;stroke:#000000;stroke-width:1.00000003pt;stroke-opacity:1"
             inkscape:connector-curvature="0" />
        </g>
        <path
           id="path4436"
           d="m -14.09007,-6.7318716 -0.922168,4.043383 3.962751,-1.22307 z"
           style="fill:#000000;fill-opacity:1;fill-rule:evenodd;stroke:#000000;stroke-width:1.00000003pt;stroke-opacity:1"
           inkscape:connector-curvature="0" />
        <path
           id="path4438"
           d="m -15.215679,4.5567534 1.874127,3.699613 2.266874,-3.472855 z"
           style="fill:#000000;fill-opacity:1;fill-rule:evenodd;stroke:#000000;stroke-width:1.00000003pt;stroke-opacity:1"
           inkscape:connector-curvature="0" />
      </g>
    </marker>
    <marker
       inkscape:stockid="Torso"
       orient="auto"
       refY="0"
       refX="0"
       id="Torso"
       style="overflow:visible"
       inkscape:isstock="true">
      <g
         id="g4441"
         transform="scale(0.7)"
         style="fill:#000000;fill-opacity:1;stroke:#000000;stroke-opacity:1">
        <path
           id="path4443"
           d="m -4.7792281,-3.239542 c 2.350374,0.3659393 5.30026732,1.9375477 5.03715532,3.62748546 C -0.00518779,2.0778819 -2.2126741,2.6176539 -4.5630471,2.2517169 -6.9134221,1.8857769 -8.521035,0.75201414 -8.257922,-0.93792336 -7.994809,-2.6278615 -7.1296041,-3.6054813 -4.7792281,-3.239542 Z"
           style="fill:#000000;fill-opacity:1;fill-rule:evenodd;stroke:#000000;stroke-width:1.25;stroke-opacity:1"
           inkscape:connector-curvature="0" />
        <path
           id="path4445"
           d="M 4.4598789,0.08866574 C -2.5564571,-4.378332 5.2248769,-3.9061806 -0.84829578,-8.7197331"
           style="fill:#000000;fill-opacity:1;fill-rule:evenodd;stroke:#000000;stroke-width:1.00000003pt;stroke-opacity:1"
           inkscape:connector-curvature="0" />
        <path
           id="path4447"
           d="M 4.9298719,0.05752074 C -1.3872731,1.7494689 1.8027579,5.4782079 -4.9448731,7.5462725"
           style="fill:#000000;fill-opacity:1;fill-rule:evenodd;stroke:#000000;stroke-width:1.00000003pt;stroke-opacity:1"
           inkscape:connector-curvature="0" />
        <rect
           id="rect4449"
           transform="matrix(0.527536,-0.849533,0.887668,0.460484,0,0)"
           y="-1.7408575"
           x="-10.391706"
           height="2.7608147"
           width="2.6366582"
           style="fill:#000000;fill-opacity:1;fill-rule:evenodd;stroke:#000000;stroke-width:1.00000003pt;stroke-opacity:1" />
        <rect
           id="rect4451"
           transform="matrix(0.671205,-0.741272,0.790802,0.612072,0,0)"
           y="-7.9629307"
           x="4.9587269"
           height="2.8614161"
           width="2.7327356"
           style="fill:#000000;fill-opacity:1;fill-rule:evenodd;stroke:#000000;stroke-width:1.00000003pt;stroke-opacity:1" />
        <path
           id="path4453"
           transform="matrix(0,-1.109517,1.109517,0,25.96648,19.71619)"
           d="m 16.779951,-28.685045 a 0.60731727,0.60731727 0 1 0 -1.214634,0 0.60731727,0.60731727 0 1 0 1.214634,0 z"
           style="fill:#000000;fill-opacity:1;fill-rule:evenodd;stroke:#000000;stroke-width:1.00000003pt;stroke-opacity:1"
           inkscape:connector-curvature="0" />
        <path
           id="path4455"
           transform="matrix(0,-1.109517,1.109517,0,26.8245,16.99126)"
           d="m 16.779951,-28.685045 a 0.60731727,0.60731727 0 1 0 -1.214634,0 0.60731727,0.60731727 0 1 0 1.214634,0 z"
           style="fill:#000000;fill-opacity:1;fill-rule:evenodd;stroke:#000000;stroke-width:1.00000003pt;stroke-opacity:1"
           inkscape:connector-curvature="0" />
      </g>
    </marker>
    <marker
       inkscape:stockid="RazorWire"
       id="RazorWire"
       refX="0"
       refY="0"
       orient="auto"
       style="overflow:visible"
       inkscape:isstock="true">
      <path
         id="path4461"
         transform="scale(0.8)"
         style="fill:#000000;fill-opacity:1;fill-rule:evenodd;stroke:#000000;stroke-width:0.10000001pt;stroke-opacity:1"
         d="m 0.02272727,-0.74009011 v 1.4375 L -7.7585227,3.0099099 H 10.678977 L 3.4914773,0.69740989 v -1.4375 L 10.741477,-2.8963401 H -7.7272727 Z"
         inkscape:connector-curvature="0" />
    </marker>
    <marker
       inkscape:stockid="Arrow1Lstart"
       orient="auto"
       refY="0"
       refX="0"
       id="marker5081"
       style="overflow:visible"
       inkscape:isstock="true">
      <path
         id="path5083"
         d="M 0,0 5,-5 -12.5,0 5,5 Z"
         style="fill:#000000;fill-opacity:1;fill-rule:evenodd;stroke:#000000;stroke-width:1.00000003pt;stroke-opacity:1"
         transform="matrix(0.8,0,0,0.8,10,0)"
         inkscape:connector-curvature="0" />
    </marker>
    <marker
       inkscape:stockid="EmptyDiamondS"
       orient="auto"
       refY="0"
       refX="0"
       id="EmptyDiamondS"
       style="overflow:visible"
       inkscape:isstock="true">
      <path
         id="path4341"
         d="M 0,-7.0710768 -7.0710894,0 0,7.0710589 7.0710462,0 Z"
         style="fill:#000000;fill-opacity:1;fill-rule:evenodd;stroke:#000000;stroke-width:1.00000003pt;stroke-opacity:1"
         transform="scale(0.2)"
         inkscape:connector-curvature="0" />
    </marker>
    <marker
       inkscape:stockid="StopM"
       orient="auto"
       refY="0"
       refX="0"
       id="StopM"
       style="overflow:visible"
       inkscape:isstock="true">
      <path
         id="path4401"
         d="M 0,5.65 V -5.65"
         style="fill:#000000;fill-opacity:1;fill-rule:evenodd;stroke:#000000;stroke-width:1.00000003pt;stroke-opacity:1"
         transform="scale(0.4)"
         inkscape:connector-curvature="0" />
    </marker>
    <marker
       inkscape:stockid="DiamondSend"
       orient="auto"
       refY="0"
       refX="0"
       id="DiamondSend"
       style="overflow:visible"
       inkscape:isstock="true">
      <path
         id="path4332"
         d="M 0,-7.0710768 -7.0710894,0 0,7.0710589 7.0710462,0 Z"
         style="fill:#000000;fill-opacity:1;fill-rule:evenodd;stroke:#000000;stroke-width:1.00000003pt;stroke-opacity:1"
         transform="matrix(0.2,0,0,0.2,-1.2,0)"
         inkscape:connector-curvature="0" />
    </marker>
    <marker
       inkscape:stockid="Tail"
       orient="auto"
       refY="0"
       refX="0"
       id="Tail"
       style="overflow:visible"
       inkscape:isstock="true">
      <g
         id="g4265"
         transform="scale(-1.2)"
         style="fill:#000000;fill-opacity:1;stroke:#000000;stroke-opacity:1">
        <path
           id="path4267"
           d="M -3.8048674,-3.9585227 0.54352094,0"
           style="fill:#000000;fill-opacity:1;fill-rule:evenodd;stroke:#000000;stroke-width:0.80000001;stroke-linecap:round;stroke-opacity:1"
           inkscape:connector-curvature="0" />
        <path
           id="path4269"
           d="M -1.2866832,-3.9585227 3.0617053,0"
           style="fill:#000000;fill-opacity:1;fill-rule:evenodd;stroke:#000000;stroke-width:0.80000001;stroke-linecap:round;stroke-opacity:1"
           inkscape:connector-curvature="0" />
        <path
           id="path4271"
           d="M 1.3053582,-3.9585227 5.6537466,0"
           style="fill:#000000;fill-opacity:1;fill-rule:evenodd;stroke:#000000;stroke-width:0.80000001;stroke-linecap:round;stroke-opacity:1"
           inkscape:connector-curvature="0" />
        <path
           id="path4273"
           d="M -3.8048674,4.1775838 0.54352094,0.21974226"
           style="fill:#000000;fill-opacity:1;fill-rule:evenodd;stroke:#000000;stroke-width:0.80000001;stroke-linecap:round;stroke-opacity:1"
           inkscape:connector-curvature="0" />
        <path
           id="path4275"
           d="M -1.2866832,4.1775838 3.0617053,0.21974226"
           style="fill:#000000;fill-opacity:1;fill-rule:evenodd;stroke:#000000;stroke-width:0.80000001;stroke-linecap:round;stroke-opacity:1"
           inkscape:connector-curvature="0" />
        <path
           id="path4277"
           d="M 1.3053582,4.1775838 5.6537466,0.21974226"
           style="fill:#000000;fill-opacity:1;fill-rule:evenodd;stroke:#000000;stroke-width:0.80000001;stroke-linecap:round;stroke-opacity:1"
           inkscape:connector-curvature="0" />
      </g>
    </marker>
    <marker
       inkscape:stockid="Arrow2Mstart"
       orient="auto"
       refY="0"
       refX="0"
       id="Arrow2Mstart"
       style="overflow:visible"
       inkscape:isstock="true">
      <path
         id="path4253"
         style="fill:#000000;fill-opacity:1;fill-rule:evenodd;stroke:#000000;stroke-width:0.625;stroke-linejoin:round;stroke-opacity:1"
         d="M 8.7185878,4.0337352 -2.2072895,0.01601326 8.7185884,-4.0017078 c -1.7454984,2.3720609 -1.7354408,5.6174519 -6e-7,8.035443 z"
         transform="scale(0.6)"
         inkscape:connector-curvature="0" />
    </marker>
    <marker
       inkscape:stockid="DotM"
       orient="auto"
       refY="0"
       refX="0"
       id="DotM"
       style="overflow:visible"
       inkscape:isstock="true">
      <path
         id="path4293"
         d="m -2.5,-1 c 0,2.76 -2.24,5 -5,5 -2.76,0 -5,-2.24 -5,-5 0,-2.76 2.24,-5 5,-5 2.76,0 5,2.24 5,5 z"
         style="fill:#000000;fill-opacity:1;fill-rule:evenodd;stroke:#000000;stroke-width:1.00000003pt;stroke-opacity:1"
         transform="matrix(0.4,0,0,0.4,2.96,0.4)"
         inkscape:connector-curvature="0" />
    </marker>
    <marker
       inkscape:stockid="Arrow1Lstart"
       orient="auto"
       refY="0"
       refX="0"
       id="Arrow1Lstart"
       style="overflow:visible"
       inkscape:isstock="true">
      <path
         id="path4229"
         d="M 0,0 5,-5 -12.5,0 5,5 Z"
         style="fill:#000000;fill-opacity:1;fill-rule:evenodd;stroke:#000000;stroke-width:1.00000003pt;stroke-opacity:1"
         transform="matrix(0.8,0,0,0.8,10,0)"
         inkscape:connector-curvature="0" />
    </marker>
  </defs>
  <sodipodi:namedview
     id="base"
     pagecolor="#ffffff"
     bordercolor="#666666"
     borderopacity="1.0"
     inkscape:pageopacity="0.0"
     inkscape:pageshadow="2"
     inkscape:zoom="0.35"
     inkscape:cx="1173.4261"
     inkscape:cy="781.74985"
     inkscape:document-units="px"
     inkscape:current-layer="layer1"
     showgrid="false"
     inkscape:window-width="1916"
     inkscape:window-height="1041"
     inkscape:window-x="0"
     inkscape:window-y="18"
     inkscape:window-maximized="0"
     fit-margin-top="0"
     fit-margin-left="0"
     fit-margin-right="0"
     fit-margin-bottom="0" />
  <metadata
     id="metadata7">
    <rdf:RDF>
      <cc:Work
         rdf:about="">
        <dc:format>image/svg+xml</dc:format>
        <dc:type
           rdf:resource="http://purl.org/dc/dcmitype/StillImage" />
        <dc:title></dc:title>
      </cc:Work>
    </rdf:RDF>
  </metadata>
  <g
     inkscape:label="Layer 1"
     inkscape:groupmode="layer"
     id="layer1"
     transform="translate(452.60784,-1326.3451)">
    <path
       style="fill:#000000;stroke:#000000;stroke-width:20.34375;stroke-linecap:round;stroke-linejoin:round;stroke-miterlimit:4;stroke-dasharray:none;stroke-dashoffset:0;stroke-opacity:1;paint-order:normal"
       d="m 853.09126,1336.5232 c -2.15805,0.088 -3.51704,1.2916 -6.10291,5.05 -15.80186,27.5572 -11.45607,26.6821 -22.61117,49.2596 -11.92087,20.3195 -12.17078,23.5182 -16.57732,31.8357 -12.00104,27.8228 -13.0392,33.3081 -34.56901,70.1846 -12.66751,26.0792 -21.24182,39.7547 -23.34333,42.107 -0.96962,1.0855 -1.76147,2.4155 -1.76147,2.9535 0,1.4405 -12.50087,22.1479 -15.17213,25.133 -1.25999,1.408 -4.73954,7.0336 -7.73253,12.5007 -9.67226,17.6676 -18.9543,33.4441 -26.10718,44.3718 -3.84551,5.8753 -7.90432,12.6253 -9.01795,15 -1.74462,3.7204 -8.46464,14.1838 -11.60339,18.0671 -1.81962,2.2511 -4.22563,8.4324 -3.54676,9.1113 0.36514,0.3651 -0.39889,1.4105 -1.69738,2.32 -1.2985,0.9094 -4.24856,4.8496 -6.55518,8.7579 -7.7145,13.0717 -8.76174,14.6373 -14.03687,20.9894 -2.88724,3.4768 -5.95692,7.7276 -6.82067,9.4464 -1.215,2.4181 -18.36136,21.6286 -23.64624,26.4917 -7.62276,7.0144 -17.1802,14.4204 -23.4137,18.144 -9.74488,5.8209 -22.59795,7.0656 -30.9906,3.0029 -2.99712,-1.4509 -6.10779,-2.6386 -6.9104,-2.6386 -2.27376,0 -7.75842,-11.9202 -9.70092,-21.0846 -3.19169,-15.058 -2.26615,-25.8291 4.57763,-53.2892 4.27324,-17.146 16.84673,-47.4198 23.83667,-57.3944 2.28872,-3.266 4.8579,-7.1567 5.7074,-8.6463 12.83845,-23.9901 22.65083,-33.3484 46.81091,-41.845 15.51237,-6.855 25.23496,-5.0777 33.2135,8.3038 7.93882,33.8116 -0.20508,15.1451 -1.84389,55.3288 -0.16587,6.6094 -3.7682,20.547 -0.16295,22.4764 3.28637,1.7586 5.26629,-0.6553 3.22266,-3.9277 -1.1543,-24.3914 14.93044,-50.3214 7.24732,-73.5753 -1.06325,-3.0137 -4.47042,-8.4497 -7.57141,-12.0795 -4.97338,-5.8215 -6.48133,-6.7802 -12.79908,-8.1281 -28.14003,-3.5537 -54.70092,22.7617 -62.16248,32.622 -2.0625,2.8993 -5.46459,7.3172 -7.55859,9.8182 -5.85761,6.9965 -12.13973,16.6328 -17.63123,27.0465 -6.83377,12.9591 -17.60938,43.0582 -18.96972,50.0006 -1.36034,6.9424 -2.47106,11.875 -3.99353,18.75 -2.10981,9.5275 -2.58895,14.641 -2.01599,21.502 0.45906,5.4973 0.26453,9.3017 -0.49988,9.7742 -2.2267,1.3763 -9.68478,-4.3429 -12.96753,-9.9444 -4.36314,-7.4452 -13.08539,-5.0161 -6.4508,-38.1958 6.63458,-33.1797 10.28779,-60.6031 13.72192,-75.4889 3.43415,-14.8858 7.11425,-43.6756 -0.28747,-44.3115 -0.56233,-0.011 -1.18075,0.072 -1.85486,0.2417 -5.16599,1.2964 -16.3782,14.5281 -23.75794,29.7216 -24.83704,51.7048 -27.92079,95.3067 -55.19348,131.2464 -1.9502,2.313 -4.25663,5.9032 -5.12695,7.9798 -0.87031,2.0764 -2.67768,4.7659 -4.01551,5.9765 -2.36376,2.1393 -2.51715,2.0155 -5.41626,-4.4 -2.82928,-6.2608 -2.97936,-7.8592 -2.89306,-30.976 -2.07422,-50.9944 6.11702,-70.6938 22.05322,-122.5543 1.17287,-6.8396 1.13751,-8.8788 -0.1831,-10.47 -1.34219,-1.6173 -5.08484,-2.8383 -5.08484,-1.6589 0,0.1749 -3.53638,4.4314 -5.25513,9.1699 -8.31883,32.6885 -18.69168,66.1545 -26.49536,84.9646 -8.01088,23.3871 -16.51076,50.3327 -28.15063,69.1846 -1.25815,1.7806 -3.53599,6.1544 -5.06104,9.7174 -1.82366,4.2607 -3.34849,6.2566 -4.45496,5.8319 -2.87536,-1.1033 -5.59645,-6.4169 -6.46179,-12.6178 -1.16599,-8.3555 -0.73029,-39.7016 0.65552,-47.1936 2.27174,-12.2814 1.45164,-36.1281 5.44372,-47.5177 4.74108,-24.5472 6.08403,-26.2131 10.61829,-46.0272 4.53425,-19.814 12.21804,-41.8915 5.85937,-43.6835 0,0 -7.59683,16.797 -10.92224,28.5846 -3.3254,11.7876 -13.45725,57.3084 -15.62805,86.1804 -0.88086,12.0955 -1.5644,14.9838 -5.57556,23.5492 -2.51453,5.3693 -4.58451,10.6959 -4.59961,11.8378 -0.1027,7.7665 -24.09456,45.1762 -34.4458,53.7085 -4.88744,4.0287 -16.88258,8.9226 -24.18824,9.8694 -6.04149,0.7832 -14.11918,-3.0351 -19.3048,-9.1279 -5.42504,-6.374 -6.34853,-8.3576 -8.2782,-17.7374 -4.05579,-19.7148 3.69894,-70.651 16.2268,-106.5747 2.74488,-7.871 4.99728,-15.5842 5.00428,-17.1405 0.0138,-2.9399 0.67066,-4.6178 4.28283,-10.9204 1.18206,-2.0625 3.07069,-6.0006 4.19312,-8.7506 3.77798,-9.2562 12.23411,-24.8147 13.76587,-25.3254 2.52421,-0.8414 3.16519,3.216 1.18653,7.5239 -2.19889,4.7873 -3.78749,15.9972 -2.67701,18.891 0.91938,2.396 3.00994,2.7248 3.02124,0.4742 0.004,-0.8594 0.78023,-3.0437 1.72486,-4.8541 0.94461,-1.8104 2.41011,-8.1757 3.25744,-14.1449 1.49108,-10.5043 1.45145,-10.9486 -1.18835,-13.7585 -1.6093,-1.713 -3.65388,-2.6583 -4.98963,-2.309 -4.53267,1.1854 -11.17869,9.8556 -15.62073,20.3778 -2.46696,5.8438 -5.67483,12.8306 -7.12646,15.5273 -3.38007,6.2793 -16.06568,42.9949 -16.06568,46.4979 0,1.4613 -1.07955,5.1206 -2.39685,8.1298 -1.3173,3.0094 -3.34038,11.3775 -4.49706,18.5962 -1.15668,7.2188 -2.88418,17.6244 -3.83973,23.1244 -3.94037,22.6806 -3.23057,47.1445 1.72486,59.4965 2.39966,5.9813 11.79668,14.8222 18.38378,17.2942 8.93572,3.3545 15.04752,3.096 26.99341,-1.1425 9.77064,-3.4668 11.1386,-4.4066 19.57032,-13.4381 9.9887,-10.6993 19.89266,-24.6039 21.89758,-30.7471 1.78668,-5.4746 1.90494,-5.7488 5.27527,-12.0886 2.5675,-4.8296 3.00202,-5.1825 3.06701,-2.4994 0.74023,30.5778 1.99409,37.1723 8.26172,43.4399 3.54427,3.5442 4.97049,4.1536 8.9502,3.8251 4.2485,-0.3507 5.08315,-1.0306 8.14087,-6.6394 12.65678,-23.3053 19.72335,-61.2096 38.62427,-94.5574 -0.22443,2.0989 -0.44435,4.0657 -0.67932,6.4324 -0.33422,3.7814 -1.16704,11.0926 -1.8512,16.2488 -2.40025,18.0896 -2.86375,33.8903 -1.30188,44.3885 1.77585,11.9364 6.66816,22.9892 11.17675,25.2539 1.71876,0.8632 3.92953,1.5791 4.91273,1.5911 2.5763,0.027 12.38175,-10.8904 15.70312,-17.4829 1.55863,-3.0937 4.07533,-8.0911 5.59387,-11.1053 7.79669,-19.8852 13.40852,-30.1934 21.73828,-55.1441 7.36087,-22.62 18.78552,-50.6685 20.82093,-53.7506 2.0354,-3.0821 1.78081,-3.0161 4.50805,-8.7506 2.72725,-5.7345 13.24639,-22.6333 15.97596,-24.8987 1.49841,-1.2436 1.77606,-0.4335 1.77612,5.1508 -0.0526,5.9932 2.76601,3.5716 0.31494,13.8025 -2.45106,10.2308 -13.38023,60.1577 -16.69189,82.8204 -3.31168,22.6626 -0.0891,26.3025 2.10388,33.349 4.10582,13.1933 15.54522,24.776 24.47021,24.776 2.62019,0 4.1938,2.5644 5.60486,9.137 1.43196,6.6699 15.14709,18.7776 23.16834,20.4528 12.19601,2.5468 20.22008,1.1324 31.80908,-5.6067 27.77825,-16.1534 52.36205,-43.738 76.94092,-86.336 3.09375,-5.3617 7.03027,-11.6677 8.74878,-14.0113 3.25675,-4.4414 37.50182,-61.068 37.50182,-62.0123 0,-0.2965 1.3265,-2.3323 2.948,-4.5208 1.6215,-2.1885 4.45646,-6.7908 6.29883,-10.2283 1.8425,-3.4375 4.49986,-7.6562 5.90699,-9.375 l 2.55981,-3.1238 -0.75074,3.1238 c -0.41237,1.7188 -3.30295,15.7819 -6.42333,31.2506 -7.11812,35.2878 -8.16654,53.4907 -4.96216,86.2225 1.1765,12.0165 2.69289,22.8825 3.36914,24.1462 0.67625,1.2634 1.67818,4.9339 2.22656,8.1536 1.7605,10.3388 6.37212,25.6327 10.15137,33.6695 2.0215,4.2986 3.67525,8.5173 3.68774,9.375 0.006,0.8575 1.70563,4.5113 3.77563,8.1207 4.74851,8.28 8.04727,9.1081 5.37416,1.3495 -4.49201,-13.0383 -11.01088,-36.2673 -14.49463,-51.6614 -7.43375,-32.8475 -9.13429,-76.3649 -4.08143,-104.3756 9.74001,-53.9941 20.03587,-85.6971 36.53687,-112.5 1.91886,-3.1169 4.1616,-7.1567 5.87219,-10.4975 0.74194,-1.4488 1.40899,-2.7982 1.86401,-3.8305 1.50414,-3.4124 3.58434,-7.1431 4.62159,-8.2892 2.1115,-2.3331 2.19754,-2.4885 17.37304,-31.1334 6.00962,-11.3438 10.3939,-21.5413 12.60865,-25.3225 2.21463,-3.7813 5.48101,-9.9157 7.46076,-14.0407 1.97987,-4.125 5.16506,-9.8501 7.08069,-12.724 4.36668,-6.3129 9.45898,-16.5019 12.03264,-21.9771 8.96187,-19.0118 11.88841,-26.968 11.99341,-32.6276 0.0869,-4.6694 -0.18597,-5.1112 -3.33435,-5.3723 -0.34685,-0.029 -0.67132,-0.037 -0.97961,-0.024 z m -695.21119,52.2308 c -0.17615,0.011 -0.35161,0.032 -0.52734,0.066 -3.52988,12.0417 -5.30202,18.3945 -6.69983,37.1998 -0.77111,10.6054 -1.66686,19.7117 -1.99036,20.235 -0.32348,0.5235 -0.89536,9.0017 -1.27075,18.8415 -0.37538,9.8399 -0.97461,18.735 -1.33118,19.7662 -0.35655,1.0313 -0.89184,5.5307 -1.19018,9.9994 -0.29833,4.4688 -1.09575,14.3131 -1.77063,21.8756 -3.04518,34.1239 -4.74081,110.8378 -2.68799,121.5876 0.75233,3.9396 1.68288,13.6306 2.06726,21.5368 1.15111,23.6765 3.20788,35.8278 9.2157,54.4666 5.92387,18.3785 13.81198,31.5499 26.84693,44.8242 7.56112,7.7 21.18509,16.6571 24.27063,15.9558 0.85937,-0.1952 1.56372,0.2308 1.56372,0.9485 0,1.8383 4.32368,1.62 9.32739,-0.4706 3.27407,-1.368 4.55478,-2.8733 5.57922,-6.5625 1.68165,-6.0556 1.6905,-8.7984 0.0348,-9.8218 -0.74397,-0.4598 -2.1723,1.3942 -3.31422,4.3012 -2.98722,7.6048 -8.76033,7.4685 -19.01184,-0.445 -21.88498,-16.8938 -33.10098,-34.3378 -40.22827,-62.5708 -4.65296,-18.4316 -4.44349,-17.0723 -6.79687,-44.3756 -3.7609,-43.6332 -1.70097,-126.904 4.27002,-172.5 0.58497,-4.4687 0.85342,-8.5008 0.59326,-8.9593 -0.26018,-0.4586 0.34658,-9.1767 1.34948,-19.3744 1.00291,-10.1977 2.11695,-22.4794 2.47559,-27.2919 0.30681,-13.1743 4.63362,-24.8909 4.47144,-34.2224 0,-2.7681 -2.60371,-5.1696 -5.24598,-5.0098 z m -160.9515331,9.0894 c -29.3241339,2.8398 -38.2275869,48.5795 -43.1268309,73.1121 -3.204975,19.2899 -8.057348,43.4422 -9.049073,54.5325 -0.991725,11.0904 -1.780776,19.2807 -2.891235,30.6244 -1.318921,13.4732 -2.045486,33.5194 -2.098389,57.8119 -0.09159,42.0629 0.969093,38.5053 -10.682373,35.8117 -12.571593,-2.906 -15.302715,-4.1165 -19.872437,-8.7963 -2.593106,-2.6556 -5.21346,-4.8267 -5.820922,-4.8267 -0.607463,0 -3.445587,-1.6726 -6.307987,-3.7171 -7.58589,-5.418 -19.13602,-8.6981 -31.21215,-8.864 -11.78428,-0.162 -16.91859,0.9565 -26.86707,5.852 -10.04536,4.9432 -27.77782,23.3654 -32.94617,34.2279 -6.36315,13.3737 -7.24335,17.0292 -8.06396,33.5577 -0.87269,17.5776 -1.99296,20.6327 -8.58764,23.3881 -2.28428,0.9545 -4.91321,2.4681 -5.84107,3.3637 -0.92788,0.8956 -6.7489,4.4732 -12.9364,7.9522 -12.96069,7.2872 -27.23254,15.8804 -32.13685,19.3469 -1.86278,1.3166 -3.92912,2.3914 -4.59411,2.3914 -1.36342,0 -5.14344,-7.0045 -5.14344,-9.5325 0,-0.9071 -1.09097,-4.0561 -2.42248,-6.9965 -1.33152,-2.9397 -3.88445,-10.1266 -5.67444,-15.9704 -1.78997,-5.8437 -4.01055,-12.0305 -4.93469,-13.7494 -0.92414,-1.7187 -2.06004,-5.0937 -2.52319,-7.5 -0.46318,-2.4061 -1.33969,-5.5006 -1.95007,-6.8756 -0.61039,-1.375 -2.22259,-6.4375 -3.57972,-11.25 -1.35712,-4.8125 -3.88235,-12.9693 -5.61401,-18.1256 -3.02694,-9.0131 -5.04185,-17.2914 -10.79956,-44.3738 -1.46164,-6.875 -3.45741,-16.1562 -4.43481,-20.625 -1.79409,-8.2026 -6.85718,-35.4742 -7.65748,-41.25 -1.19558,-8.6282 -2.15569,-11.4285 -4.32312,-12.5885 -1.49116,-0.7985 -3.14056,-0.8377 -4.44763,-0.1061 -1.82842,1.023 -2.12274,4.733 -2.45362,30.9905 -0.20672,16.4054 0.1335,18.1206 -0.40649,30.9119 -0.53998,12.7913 -0.72262,20.978 -0.88257,39.9371 -0.15994,18.9591 -0.60427,28.9378 -1.06567,32.5012 -0.4614,3.5633 -0.77126,7.3221 -0.68665,8.3533 0.83359,10.1592 1.43089,25.1215 1.94458,48.75 0.3363,15.4688 0.93296,35.0717 1.32752,43.5626 0.64615,13.9049 0.49476,15.6108 -1.53626,17.1863 -10.61617,7.8544 -18.35128,9.2246 -27.5592,16.9611 -5.05406,4.2922 -14.49061,8.7011 -21.23291,9.9169 -9.83352,1.7735 -36.08103,11.7441 -42.21313,16.0364 -2.75,1.9248 -6.125,3.8769 -7.5,4.3378 -4.41883,1.4809 -11.01257,7.9352 -10.21912,10.0031 27.4327,-19.776 38.39005,-21.7055 63.75594,-29.3038 21.17525,-5.9402 35.43679,-18.222 50.29743,-27.5863 -0.41055,4.6385 1.76379,53.4905 2.39804,61.3931 0.63427,7.9028 1.48511,23.9302 1.88966,35.6177 1.29688,37.4679 2.05083,53.0746 9.80346,69.3604 1.14162,2.3981 -4.53185,4.5317 -3.44055,4.7405 2.66546,0.5101 7.72294,-3.7278 8.00171,-6.7053 0.12329,-1.3167 0.64861,-5.8714 1.16821,-10.1202 0.63746,-5.2125 0.44553,-9.1098 -0.59326,-11.9824 -1.07834,-2.9822 -1.15705,-4.9408 -0.26184,-6.5406 0.91649,-1.6375 0.76803,-3.505 -0.52551,-6.6009 -0.99216,-2.3745 -1.40619,-5.2364 -0.92102,-6.3593 -2.59602,-33.297 -4.71112,-98.2346 -7.85001,-122.6552 25.48692,-18.4837 25.22632,-17.7667 46.76854,-33.7508 15.52207,34.6829 63.04084,109.8336 75.89224,122.8996 17.82056,18.1175 24.35941,22.7281 27.61048,19.4769 1.72586,-1.7258 1.53337,-2.4485 -1.89514,-7.1814 -2.09714,-2.8951 -6.47154,-6.9252 -9.72107,-8.9539 -6.13181,-3.8282 -19.50697,-16.9965 -25.94971,-25.5487 -2.03943,-2.7071 -5.46002,-6.9258 -7.60071,-9.375 -2.14067,-2.449 -4.8595,-6.3447 -6.04247,-8.6572 -1.18298,-2.3124 -4.50967,-7.658 -7.3938,-11.8762 -13.41171,-19.618 -38.36372,-69.9798 -35.89417,-72.4493 0.6725,-0.6726 3.18766,-2.402 5.58838,-3.8453 2.40072,-1.4433 11.13866,-6.8444 19.4165,-12.0007 8.27783,-5.1562 17.20825,-10.4994 19.84497,-11.8744 2.63673,-1.375 6.37843,-3.765 8.31482,-5.3119 1.93639,-1.5468 4.71669,-2.8125 6.17981,-2.8125 2.435,0 2.86241,1.2734 5.03357,15.0494 1.30459,8.2777 2.81165,15.3235 3.349,15.6555 0.53735,0.3321 1.32902,3.2617 1.75964,6.5113 0.43062,3.2497 1.24441,7.0332 1.80909,8.4082 1.9675,4.7911 3.8031,12.8182 3.8031,16.6351 0,2.1141 0.53184,4.1724 1.18469,4.5759 10.18819,27.9858 11.31554,36.7669 20.6488,61.9134 1.88241,5.1563 5.39128,14.7201 7.79664,21.2512 2.40534,6.5313 4.77471,14.4057 5.26428,17.4994 0.48954,3.0938 1.77836,7.3125 2.8656,9.375 17.1077,45.9147 34.74683,97.1202 47.22473,135.8276 0.0243,2.6399 1.89289,8.328 4.418333,13.4382 4.4028,8.9086 6.468996,10.4503 9.347534,6.9818 1.264378,-1.5235 0.808086,-4.7598 -2.426148,-17.1863 -4.9017,-15.8043 -9.638719,-30.6391 -15.684819,-50.5225 -12.14506,-32.0665 -25.7203,-68.3933 -36.21826,-102.2882 -3.1879,-10.3125 -6.57209,-20.4375 -7.52013,-22.5 -0.94807,-2.0625 -2.95036,-7.335 -4.44947,-11.7169 -2.86054,-8.3612 -2.39131,-10.0916 2.74841,-10.1385 5.45561,-0.05 16.66525,-5.9237 25.08179,-13.1397 24.4092,-17.3196 40.005584,-34.7648 54.072875,-65.0061 1.6701,-2.75 3.060914,-5.9838 3.09082,-7.1869 0.02981,-1.2031 0.524823,-2.1881 1.102295,-2.1881 0.577462,0 1.798086,-2.2632 2.711793,-5.0318 0.913705,-2.7687 2.221527,-4.8479 2.905883,-4.6197 0.684347,0.2283 3.317835,5.4461 5.850219,11.5961 2.532394,6.1499 6.374783,14.6261 8.54187,18.836 2.167088,4.21 3.942262,8.1308 3.942262,8.714 0,0.5832 2.441617,6.9838 5.427246,14.2219 2.985694,7.2377 6.969665,17.2293 8.853149,22.2033 3.429928,9.0577 11.083685,20.924 14.315186,22.196 3.616812,1.4237 6.822912,-4.486 4.0979,-7.5531 -0.5803,-0.653 -2.336834,-4.4299 -3.903809,-8.3954 -1.566975,-3.9651 -4.4636,-9.2434 -6.437988,-11.7278 -4.294785,-5.4044 -11.278223,-26.0626 -11.768188,-34.8139 -0.19246,-3.4375 -1.03556,-7.9369 -1.873169,-9.9994 -0.837619,-2.0625 -1.972185,-4.8762 -2.521363,-6.2512 -0.549187,-1.375 -1.310103,-4.75 -1.690063,-7.5 -0.37995,-2.75 -1.292562,-7.8125 -2.028809,-11.25 -0.736228,-3.4375 -1.848158,-10.1875 -2.471924,-15 -0.623747,-4.8125 -1.693637,-12.6869 -2.376709,-17.4994 -0.683072,-4.8125 -1.519061,-13.25 -1.85852,-18.75 -0.339488,-5.5 -1.01156,-14.873 -1.49231,-20.8282 -1.202353,-14.8937 -1.114271,-15.0404 7.672119,-12.746 16.478063,2.7392 10.848632,-1.6779 1.788941,-5.2698 -4.821338,-1.8915 -9.454108,-4.2681 -10.296021,-5.2826 -2.066522,-2.4901 -2.025362,-61.7589 0.06043,-87.1234 3.661864,-44.531 12.3831,-90.3633 15.838622,-105 3.455522,-14.6367 -0.856509,-22.7964 19.49524,-49.2425 20.3517495,-26.4463 54.219313,31.6935 56.314086,49.1857 2.094774,17.4922 2.847777,73.4232 -5.044555,110.6818 -0.68475,3.0938 -1.856051,9 -2.60376,13.125 -4.259144,21.6083 -9.317489,32.3677 2.449951,6.5552 2.916237,-6.3128 7.097108,-21.8077 8.009033,-29.6796 0.3584,-3.0937 1.273052,-9 2.034302,-13.125 3.603158,-23.6859 5.085943,-59.3587 3.074341,-87.3962 -2.011602,-28.0376 -29.77192,-63.0491 -51.1358641,-62.7466 z m 972.2442731,3.5833 c -17.87503,0.1016 -31.78285,1.447 -41.67113,4.032 -3.43753,0.8986 -7.09312,1.6368 -8.12437,1.6498 -1.03125,0.01 -6.09375,1.2276 -11.25,2.7082 -5.15651,1.4806 -13.59379,3.8233 -18.75004,5.2056 -16.12326,4.3216 -31.96555,12.8345 -41.37268,22.229 -9.5035,9.4906 -12.11811,13.963 -14.28223,24.4464 -2.60713,12.6304 1.15144,24.3249 8.1665,55.0397 7.01507,30.7148 11.29986,38.0757 21.21644,67.3389 -10.68065,-38.2743 -10.25731,-44.8787 -15.26917,-69.2304 -0.67436,-3.7418 -1.04273,-5.8893 -4.13086,-17.4811 -3.08813,-11.5918 -4.67481,-29.6937 -1.2268,-40.0011 4.419,-13.2108 22.85479,-27.0599 46.83654,-35.1838 12.884,-4.3643 45.28758,-11.824 56.10717,-12.9163 9.67453,-0.9764 56.53612,-0.984 69.15892,-0.018 24.1866,1.8595 37.9026,3.5324 51.6706,6.2987 8.25,1.6576 16.97,3.2773 19.3761,3.5999 12.7005,1.7038 37.1077,8.5296 49.0889,13.7293 5.4689,2.3732 14.6611,10.2921 14.6611,12.6306 0,2.0646 -8.2856,9.3603 -10.631,9.3603 -18.419,13.7222 -47.7935,24.4721 -70.1898,30.1264 -4.9798,1.2445 -11.1919,3.6054 -13.8044,5.2478 -2.6125,1.6421 -7.8441,3.9928 -11.6253,5.224 -24.6713,14.1938 -56.00498,21.0843 -78.04509,30.0183 -18.837,7.6655 -27.51693,12.1021 -32.02331,16.3641 -1.7564,1.6611 -3.63515,3.0194 -4.17478,3.0194 -0.53981,0 -2.03662,1.2656 -3.327,2.8125 l -2.3475,2.8125 v -3.1255 c 0,-1.7188 0.84056,-7.6251 1.86403,-13.125 6.32756,-33.999 6.30319,-39.9995 -0.16294,-39.9995 -2.844,0 -3.75093,0.6272 -4.06125,2.8125 -0.25668,1.8075 -1.26178,2.8125 -2.8125,2.8125 -1.32712,0 -2.41153,0.6214 -2.41153,1.3825 0,0.8089 0.90947,1.0304 2.18813,0.5328 1.20309,-0.4683 2.7494,-0.9498 3.43687,-1.0712 1.704,-0.2996 0.90488,12.6224 -1.45387,23.5309 -1.04044,4.8126 -2.85713,14.4678 -4.03931,21.4582 -1.54613,9.1425 -3.063,14.0535 -5.40525,17.4993 -1.79091,2.6347 -4.54322,8.6035 -6.11572,13.2624 -2.73475,8.1025 -2.79672,9.1072 -1.40259,23.1243 1.51987,15.2825 1.30367,18.1696 -4.05396,54.0308 -3.49337,23.3823 -7.0039,51.55 -8.18115,65.625 -0.6325,7.5625 -1.43761,15.437 -1.78711,17.4995 -0.56088,3.3092 -1.86276,13.8492 -3.93677,31.875 -0.35599,3.0936 -1.17315,7.5931 -1.8164,9.9993 -0.64337,2.4062 -1.17737,6.9829 -1.17737,10.1697 -0.004,3.1866 -0.95026,8.7161 -2.10388,12.2882 -1.80314,5.5829 -1.84578,6.6536 -0.31128,7.6209 2.54487,1.6041 4.81935,-4.4478 6.84448,-18.2026 0.91101,-6.1875 2.76953,-17.7194 4.12903,-25.6255 1.35962,-7.9063 3.38237,-23.657 4.49524,-35.0007 2.69974,-27.519 6.70262,-56.4595 11.32324,-81.8738 1,-5.4999 1.8283,-10.7038 1.84208,-11.563 0.06,-3.8098 2.22094,-0.7866 6.25669,8.7597 6.34903,15.0181 13.93068,28.2892 26.11631,45.7104 5.92762,8.4746 12.69647,18.3189 15.04209,21.8756 2.34582,3.5568 7.50488,10.4831 11.46422,15.3937 3.95935,4.9106 10.4296,13.6306 14.3775,19.3763 5.85975,8.528 14.99831,19.8287 23.72855,29.3408 0.7343,0.7998 3.7043,6.1575 6.601,11.9055 6.5588,13.0145 7.3344,20.4937 2.6459,25.5212 -4.5364,4.865 -15.94482,10.2041 -23.74876,11.1145 -3.75816,0.4383 -11.05228,1.5884 -16.20853,2.5562 -23.49047,4.4087 -28.8555,4.7603 -61.65713,4.0246 -28.63611,-0.6416 -34.74511,-1.1477 -48.96785,-4.0466 -8.9375,-1.8216 -17.375,-4.0219 -18.75,-4.8889 -1.37501,-0.867 -4.62423,-2.2731 -7.21985,-3.1238 -2.59564,-0.8509 -6.25127,-2.8287 -8.12439,-4.3945 -1.87313,-1.5657 -5.65454,-4.0543 -8.40454,-5.5316 -13.73938,-7.38 -25.72913,-17.2237 -31.40076,-25.7813 -4.6215,-6.973 -10.47546,-25.495 -10.47546,-33.1439 0,-5.9256 -1.86302,-6.6003 -2.96815,-1.0748 -2.74412,13.7205 2.43968,31.6926 13.29529,46.0949 2.68489,3.5621 14.5635,12.8625 22.34986,17.4995 2.88625,1.7186 7.84665,4.8818 11.02478,7.0293 7.9925,5.4008 15.43474,9.0712 24.34387,12.0063 11.206,3.6912 20.97308,6.112 21.70532,5.3796 0.35451,-0.3545 1.41008,-0.01 2.34559,0.769 0.93538,0.7765 6.33061,1.7546 11.98974,2.1754 h 0.002 c 14.1175,1.0494 54.97972,0.9651 56.64182,-0.1172 0.74418,-0.4848 6.36797,-1.1735 12.49884,-1.5308 15.11109,-0.8812 32.56191,-4.0409 38.73047,-7.0129 2.79534,-1.3469 6.96572,-2.4482 9.26694,-2.4482 8.4974,0 23.1633,-11.0894 24.5673,-18.576 2.2043,-11.7505 -9.5497,-36.0214 -25.36927,-52.381 -3.81225,-3.9422 -9.9871,-11.668 -13.722,-17.168 -3.73491,-5.4999 -9.5851,-13.6568 -12.99863,-18.1255 -3.41343,-4.4688 -8.26912,-11.2188 -10.79222,-15 -2.52309,-3.7813 -7.01437,-9.869 -9.97921,-13.5279 -5.24457,-6.4719 -19.18032,-28.1084 -19.18032,-29.7784 0,-0.4581 -1.3004,-2.5748 -2.88947,-4.7022 -1.58906,-2.1273 -3.6509,-5.8353 -4.58128,-8.2415 -0.93047,-2.4063 -2.34759,-5.2182 -3.15122,-6.2495 -2.42165,-3.1074 -8.02134,-21.3361 -9.18271,-29.8938 -0.65419,-4.8232 -0.61435,-10.052 0.0988,-13.125 0.65175,-2.8093 1.63856,-7.9187 2.19365,-11.3562 0.975,-6.037 4.38057,-23.5992 5.58104,-28.7786 1.38534,-5.9768 40.72022,-31.561 48.14813,-31.561 25.15126,-8.8336 41.65091,-15.7312 63.60251,-27.0637 2.0528,-2.1188 14.6026,-6.6318 27.0562,-9.5108 21.5088,-7.2742 73.6261,-22.9238 91.3477,-39.4958 7.3069,-7.1016 7.4095,-10.9788 0.4943,-18.4809 -4.9356,-5.3541 -20.2226,-14.4854 -24.2523,-14.4854 -1.1243,0 -5.5412,-1.1986 -9.8163,-2.6641 -4.2753,-1.4654 -8.8972,-2.832 -10.2722,-3.0378 -3.1911,-0.4776 -10.609,-1.9857 -32.992,-6.7034 -9.894,-2.0855 -21.7065,-4.1295 -26.25,-4.5429 -25.898,-2.3562 -30.2381,-2.623 -59.89379,-3.675 -6.83804,-0.2424 -13.23666,-0.3451 -19.19494,-0.3112 z m -1242.43837,49.3507 c -4.27881,0.019 -16.4181,3.6675 -18.9862,5.7055 -0.89413,0.7096 -1.4554,2.7451 -1.24878,4.5227 0.34398,2.959 0.90445,3.2511 6.62659,3.4589 3.43749,0.1247 7.93688,0.7443 9.99938,1.3751 2.0625,0.6308 4.59375,0.9912 5.625,0.8038 1.03125,-0.1874 2.29689,-0.3828 2.8125,-0.4357 1.96719,-0.2007 0.81872,-3.7873 -1.79992,-5.6214 -3.42972,-2.4022 -2.14945,-3.8113 3.13843,-3.4552 2.23465,0.1504 5.16815,-0.5688 6.51855,-1.5986 2.12289,-1.6188 2.2016,-2.0427 0.58044,-3.1274 -1.83052,-1.2249 -5.39041,-1.6628 -13.26599,-1.6277 z m -121.18102,40.3198 c 3.55653,0 -6.84506,0.5571 -7.80213,1.5142 -2.44429,2.4444 -1.72778,5.9718 1.93726,9.5343 4.63447,4.505 12.81188,4.8427 12.81188,0.5292 0,-1.5469 -0.63273,-2.8125 -1.40441,-2.8125 -1.016,0 -1.00248,-0.4817 0.0458,-1.745 0.8054,-0.9704 3.36997,-1.6536 5.77882,-1.5399 2.93857,0.1383 4.33044,-0.3484 4.33044,-1.5142 0,-0.9745 -0.77183,-1.421 -1.78345,-1.0328 -0.98098,0.3764 -2.45747,-0.1266 -3.27942,-1.1169 -0.93522,-1.1269 -4.99801,-1.7496 -9.10034,-1.8164 -0.51279,-0.01 -1.02643,-0.01 -1.53442,0 z m 698.82201,90.0146 c 0.68751,0 1.25062,0.8109 1.25062,1.8018 0,0.9905 -0.56311,2.1496 -1.25062,2.5744 -0.68749,0.4249 -1.2506,-0.3861 -1.2506,-1.8017 0,-1.4156 0.56311,-2.5745 1.2506,-2.5745 z m -243.753656,11.0577 c -3.24853,0.1401 -6.649146,1.2636 -10.614624,3.3143 -3.725087,1.9262 -15.007324,16.7671 -15.007324,19.7405 0,0.9832 -1.622134,4.8273 -3.605347,8.5437 -1.983212,3.7166 -5.043268,12.6548 -6.798706,19.8633 -1.755432,7.2084 -3.831739,15.638 -4.616089,18.7317 -0.78435,3.0938 -1.418081,6.5961 -1.408081,7.7857 0.0309,3.5002 -2.110504,3.8363 -6.809693,1.0638 -5.9335853,-3.501 -12.29321872,-3.4254 -14.8168937,0.1776 -2.405175,3.4339 -2.4614522,4.7223 -0.2050781,4.7223 0.9577003,0 2.0652,0.8438 2.46093746,1.875 0.82324968,2.1454 9.54895034,2.6673 9.54895034,0.5713 0,-0.7169 1.955917,0.2562 4.345092,2.1625 l 4.343262,3.468 -0.09338,16.2726 c -0.242088,42.0284 11.838066,74.886 36.405029,99.0106 7.709823,7.571 11.645392,9.991 19.92737,12.2644 3.134222,0.8604 7.276603,1.6362 9.20654,1.7211 5.618513,0.2485 14.843963,-2.4981 20.128781,-5.9911 2.68779,-1.7766 6.20104,-4.0737 7.80945,-5.105 4.25085,-2.7255 15.76312,-16.0775 13.58643,-15.7581 -1.0148,0.149 -5.37573,3.0926 -9.68995,6.5406 -13.96939,11.1645 -18.104508,12.9675 -29.729001,12.9675 -9.673922,0 -10.550288,-0.2354 -17.277825,-4.6729 -9.074094,-5.9851 -10.944778,-8.2559 -26.022953,-31.5765 -9.791511,-15.144 -20.032077,-66.3498 -15.569458,-77.8509 1.316763,-3.3938 1.424151,-3.427 4.513551,-1.4026 4.909886,3.2171 28.128208,1.9481 34.993288,-1.9117 11.425294,-6.4235 20.676675,-20.1674 25.156856,-37.3682 4.388728,-16.8492 -2.439966,-42.3045 -13.925166,-51.9048 -5.613609,-4.6924 -10.130456,-7.0452 -14.851688,-7.2547 -0.459009,-0.02 -0.920207,-0.02 -1.384277,0 z M 1090.1359,1611.738 c 0.9454,4.8125 2.6447,11.7019 3.7757,15.3113 1.1312,3.6094 2.5414,6.5625 3.1347,6.5625 1.9334,0 1.1416,-8.2355 -1.9299,-20.061 -3.1358,-20.6026 -9.3775,-24.0251 -4.9805,-1.8128 z m -1408.82992,-4.2719 c 0.72043,1.3461 1.03821,2.8879 0.70679,3.4242 -0.64256,1.0397 3.23473,19.5139 6.07177,28.9324 0.93821,3.1148 2.66653,9.8841 3.84156,15.0403 1.17504,5.1563 4.07481,15.2813 6.44347,22.5 2.36866,7.2188 5.07499,15.9369 6.01502,19.3744 0.94002,3.4375 3.75609,11.875 6.25672,18.75 2.50061,6.875 5.86355,16.4369 7.47436,21.2494 1.61084,4.8125 3.81484,10.4381 4.89807,12.5006 3.82762,7.288 1.782,11.6089 -8.01269,16.9153 -3.09375,1.6761 -7.40621,4.464 -9.58374,6.1926 -2.17753,1.7286 -5.53477,4.2665 -7.45972,5.6415 -6.60127,4.7154 -16.18586,13.3454 -17.08215,8.5705 -0.44704,-2.3829 -5.26136,-46.3876 -4.91087,-47.728 -1.2918,-29.8554 -0.16926,-24.6817 -0.72537,-48.2662 -0.10736,-5.1562 1.00138,-44.9183 0.72839,-46.9808 -0.66512,-5.0249 2.85525,-7.9684 2.20732,-27.4768 -0.28557,-8.5982 -0.87402,-16.5569 -1.30737,-17.6862 1.41887,-9.8719 3.44906,7.1039 4.43844,9.0468 z m 379.564818,-6.784 c 3.898348,0.016 8.666313,2.5192 14.067991,7.3993 6.718782,6.07 8.6985,11.0451 9.624029,24.19 0.848831,12.0559 -1.109138,22.074 -6.328125,32.3731 -3.885357,7.6673 -15.089618,18.0037 -21.644901,19.9677 -4.919767,1.474 -14.378267,2.0445 -15.488892,0.9338 -0.31135,-0.3113 -2.666936,-0.7973 -5.234985,-1.0804 -8.626463,-0.9499 -11.112615,-5.5978 -8.404542,-15.7085 0.665851,-2.486 2.070368,-9.0203 3.120118,-14.5203 2.952555,-18.1044 1.741104,-16.6507 11.817627,-38.5199 0.217037,-2.1775 13.987402,-14.3398 16.85669,-14.8883 0.520787,-0.1 1.058083,-0.1487 1.61499,-0.1465 z m -194.199828,29.458 c 6.74853,0.01 13.20131,1.0159 17.80151,3.0853 5.48326,2.4669 20.391901,11.8573 20.460208,12.887 10.467655,7.6982 17.135388,16.4067 21.309813,25.5267 -3.108797,-14.01 -2.232716,-23.1028 11.727906,-13.1542 0.975281,0.8094 2.246483,6.6597 3.081665,14.1906 1.397278,12.5998 3.291788,37.0976 2.982788,38.5565 -0.08672,0.4095 0.659377,3.4513 1.655273,6.7603 0.995879,3.3091 1.810914,9.058 1.810914,12.7752 0,3.7171 0.486462,7.7064 1.080321,8.8642 0.593879,1.158 1.393933,5.3395 1.781617,9.2926 1.120331,11.4229 -1.116934,9.3117 -6.654052,-6.2769 -1.531463,-4.3115 -3.272632,-8.1409 -3.870851,-8.5107 -0.598209,-0.3696 -1.135853,-6.6869 -1.193847,-14.0369 1.493138,-2.7349 -2.678302,-15.1952 -6.829834,-28.548 2.157075,16.3518 -0.527233,32.6781 -1.38977,45.8643 -0.422691,3.7515 -1.35358,7.5597 -2.067261,8.4632 -0.713681,0.9033 -1.506366,3.6918 -1.763306,6.1962 -12.85066,32.0369 -22.325644,39.8274 -40.189814,56.6254 -24.90984,24.3673 -26.87911,25.9034 -36.02418,28.0884 -9.0824,2.17 -10.32171,2.1994 -11.0266,0.26 -3.26096,-11.9868 -8.99548,-19.2207 -16.04005,-42.193 -1.7443,-2.0724 -3.26757,-5.9537 -3.74817,-9.5545 -0.44516,-3.3351 -1.98299,-9.72 -3.41674,-14.1888 -4.85574,-15.1346 -6.03082,-19.3601 -7.4817,-26.8762 -2.76398,-14.3185 -3.30738,-20.0114 -2.15148,-22.5659 1.08225,-2.392 7.98857,-6.0824 31.6095,-16.8933 4.81249,-2.2027 10.15746,-4.9754 11.87622,-6.1615 1.71875,-1.1863 5.2696,-2.8528 7.89367,-3.7043 4.98447,-1.6172 8.02007,-5.8605 6.68336,-9.3439 -1.19703,-3.1194 -4.25791,-2.3294 -13.78236,3.5596 -4.906,3.0333 -12.29589,6.9354 -16.42089,8.6701 -4.125,1.7348 -12.42126,5.7449 -18.4369,8.9136 l -10.93688,5.7622 -0.12451,-3.4935 c -0.4897,-13.8785 0.21112,-21.7095 2.5415,-28.3759 1.41953,-4.0608 2.58179,-8.1922 2.58179,-9.181 0,-6.3019 22.4105,-31.468 32.50122,-36.4983 6.33081,-3.156 15.49323,-4.7961 24.16992,-4.7846 z m 65.143431,61.4117 c -0.884625,-6.7058 -2.59679,-13.4129 -5.5719,-19.9127 1.352625,6.0958 3.459272,13.1178 5.5719,19.9127 z m 1188.696199,-3.1526 c -1.1744,1.2976 -3.0578,5.6489 -3.6083,7.9336 -5.2687,21.8668 -13.8782,51.3627 -26.2079,89.7802 -3.4201,10.6563 -6.795,21.9057 -7.5,24.9994 -0.705,3.0938 -2.3924,10.4069 -3.7482,16.2506 -1.3559,5.8439 -3.8762,18.2176 -5.603,27.4988 -1.7268,9.2813 -3.7225,18.8403 -4.4311,21.2421 -1.4379,4.873 -1.7458,17.8832 -0.4541,19.1747 1.3522,1.3525 3.7589,0.9584 5.2715,-0.8642 0.7752,-0.934 1.9912,-5.0115 2.7045,-9.0619 0.7131,-4.0504 2.1484,-11.8657 3.1897,-17.3657 1.0415,-5.5 2.1024,-12.9415 2.3585,-16.5381 0.2558,-3.5965 0.8987,-7.2403 1.4281,-8.0969 0.5294,-0.8565 1.6604,-4.9449 2.5123,-9.0857 2.276,-11.0646 8.9373,-35.5172 11.2444,-41.2793 1.1011,-2.75 2.7286,-8.4187 3.6182,-12.5958 2.2145,-10.3971 12.6992,-37.2795 17.5122,-44.903 17.597,-27.8722 43.3062,-35.4877 63.8416,-18.9092 3.5143,2.8372 9.0227,8.6742 12.2406,12.9711 8.3352,11.1308 11.478,10.1601 4.9457,-1.5271 -9.9553,-17.8119 -28.5488,-29.0149 -44.9011,-27.0538 -10.2767,1.2324 -24.0675,8.6717 -31.2068,16.8328 l -5.5151,6.3044 0.6922,-4.9347 c 0.381,-2.7141 1.4882,-7.4257 2.4609,-10.47 2.093,-6.5504 5.3857,-13.6887 3.5154,-14.3121 3.8712,-8.8584 3.793,-7.9589 0.3575,-14.1029 0,0 -4.5227,6.3108 -4.7177,8.1127 z m -43.6369,19.5882 c -3.4053,10.3125 -7.3128,21.0006 -8.6848,23.7506 -3.2407,6.4953 -18.8084,46.6581 -18.8214,48.5486 0,0.7983 -0.898,3.1377 -1.9849,5.2002 -3.5612,6.7586 -14.3629,40.9485 -17.4682,55.2906 -2.9922,13.8198 -3.8621,24.0944 -2.1845,25.772 1.7302,1.73 3.0772,-1.5973 5.5389,-13.6853 2.4931,-12.2414 14.5769,-49.2826 22.3884,-68.6261 2.221,-5.5 5.338,-13.3762 6.9287,-17.5012 1.5908,-4.125 6.378,-16.4988 10.6384,-27.4988 11.8478,-30.5909 13.3901,-36.3295 11.5906,-43.125 -1.6467,-16.5598 -7.338,10.0505 -7.9412,11.8744 z m 238.2769,-7.6337 c -3.8779,-0.072 -9.0351,1.6525 -16.6058,5.3394 -7.2795,3.5449 -11.6473,7.0877 -23.3698,18.9514 -7.93,8.0259 -16.5868,17.4054 -19.2352,20.8429 -6.6546,8.6368 -22.2553,30.8445 -23.2709,33.1256 -0.4593,1.0313 -2.5109,4.4063 -4.5593,7.5 -2.0486,3.0938 -4.4321,7.0301 -5.2973,8.7488 -2.6664,5.2961 -8.7835,15.4337 -11.6913,19.3762 -6.5585,28.0406 -24.6089,47.2007 -39.2449,72.5153 0,0.7701 -1.8287,3.1347 -4.0632,5.2569 -2.2344,2.1222 -5.3716,5.6013 -6.9707,7.7307 -5.9046,7.8621 -8.211,4.1512 -8.0823,-13.0041 0.1352,-18.0326 5.8976,-37.2749 21.3335,-71.2464 4.8775,-10.7338 25.8,-49.7895 36.4966,-68.128 5.0128,-8.5937 10.5027,-18.1556 12.1985,-21.2494 1.6959,-3.0937 3.954,-7.1105 5.0208,-8.9246 3.8292,-6.5116 -1.6578,-10.0842 -6.9068,-4.497 -4.218,4.4899 -6.5219,11.2397 -5.6561,16.5747 0.5774,3.5576 0.3884,4.5012 -0.7617,3.7903 -0.8425,-0.5201 -1.2278,-1.7336 -0.8588,-2.6954 1.519,-3.9579 -1.7767,-1.3669 -4.5318,3.5633 -1.6605,2.9714 -3.834,5.2492 -4.9329,5.1672 -1.216,-0.091 -1.7759,0.6235 -1.4685,1.875 0.2736,1.1121 -0.6153,3.9897 -1.9739,6.3959 -1.3586,2.4063 -3.6939,6.8674 -5.191,9.9152 -1.497,3.0475 -5.414,10.496 -8.7049,16.5527 -3.291,6.0568 -6.9663,13.6886 -8.1665,16.9593 -1.2001,3.2705 -2.8645,6.52 -3.6987,7.2198 -1.8815,1.578 -6.8316,10.6935 -6.8316,12.5793 0,0.7639 -0.8054,3.0227 -1.789,5.0189 -3.5689,7.2447 -12.2419,27.5435 -14.6356,34.2554 -5.8723,16.4663 -8.7143,42.7006 -5.6836,52.4579 3.8956,12.5422 12.5174,12.9517 22.1063,1.0492 28.6627,-46.0661 8.5147,-21.6856 36.524,-63.6603 2.5995,-3.8642 4.7279,-7.5918 4.7279,-8.2836 0,-0.6919 0.7916,-1.9158 1.7596,-2.7192 0.9678,-0.8032 2.6587,-3.3573 3.7591,-5.6762 1.1006,-2.319 4.5274,-8.3144 7.6154,-13.3229 3.0879,-5.0083 5.6373,-9.6959 5.6653,-10.4149 0.028,-0.7192 1.7155,-3.254 3.75,-5.6342 2.0347,-2.3803 3.7006,-4.7425 3.7006,-5.2496 0,-0.5071 1.6875,-3.4223 3.75,-6.4783 2.0625,-3.056 3.75,-6.0716 3.75,-6.7017 0,-0.63 1.0042,-2.236 2.2338,-3.5687 1.2298,-1.3328 6.0291,-7.4048 10.666,-13.4949 17.6139,-23.1353 37.0681,-41.8764 49.9621,-48.1274 7.8143,-3.7883 10.0346,-2.9773 8.8971,3.2465 -0.4728,2.5872 -1.3442,6.0051 -1.9354,7.597 -0.6437,1.7324 -0.5727,3.8332 0.1757,5.2313 1.734,3.2402 1.6247,3.5204 -1.538,3.9734 -11.6327,11.921 -15.7087,25.6251 -24.5856,40.2777 -5.5139,9.0748 -9.1791,16.5273 -9.4134,19.1401 -0.2112,2.3529 -1.0199,4.9163 -1.7982,5.6945 -0.7783,0.7783 -1.4154,1.9032 -1.4154,2.5013 0,0.5979 -1.6875,3.5391 -3.75,6.5368 -2.0625,2.9978 -3.7554,5.9109 -3.7554,6.4746 0,0.5636 -1.5849,2.7129 -3.5139,4.7754 -1.9288,2.0625 -5.592,7.3106 -8.139,11.662 -5.503,9.4016 -19.0203,40.268 -22.2308,50.7586 -3.1548,10.3089 -5.3349,30.7457 -4.3286,40.5909 0.4632,4.5309 0.819,9.3641 0.7909,10.7391 -0.063,3.1018 2.1594,7.8617 5.3998,11.5631 1.3543,1.5469 2.926,2.8125 3.4937,2.8125 1.6958,0 1.1728,-4.8548 -0.9705,-8.9996 -3.7278,-7.2088 -1.8951,-43.63 2.7411,-54.4831 1.0911,-2.5536 2.7562,-7.547 3.7025,-11.0961 2.3629,-8.8635 15.2738,-34.8422 27.2296,-54.7962 1.2359,-2.0625 4.2424,-7.9687 6.6814,-13.125 2.4393,-5.1562 5.7476,-11.1269 7.3517,-13.2678 1.6044,-2.1409 6.1154,-10.0171 10.0269,-17.5012 9.4449,-17.5367 19.844,-34.8005 26.662,-53.5639 3.3761,-9.6508 3.2945,-11.1976 -0.769,-14.3939 -1.6524,-1.2997 -3.5199,-1.9893 -5.8466,-2.0325 z m 122.5067,4.8193 c -2.3363,0.031 -4.4721,0.343 -6.0791,0.9742 -4.7827,1.8784 -13.8315,6.4237 -19.8761,9.082 -6.0446,2.6584 -19.8473,8.2885 -28.4582,15.2381 -28.4304,22.9444 -67.0626,72.2311 -83.3076,106.2836 -9.2152,19.316 -15.7281,40.3258 -17.3584,55.9991 -0.4155,3.9954 -0.8534,7.6529 -0.9759,8.1262 -0.122,0.4734 0.2108,5.5167 0.7398,11.2079 2.6057,28.0426 12.0676,42.2858 33.5577,50.517 5.5517,2.1265 8.4885,2.4225 18.4753,1.8621 12.2176,-0.6857 28.8411,-3.7135 32.948,-6.0003 1.2779,-0.7112 5.4973,-2.3098 9.375,-3.5541 60.7192,-24.2513 57.7669,-47.2477 38.0164,-27.9639 -2.5927,1.4154 -8.932,4.9905 -14.0881,7.945 -14.5001,8.3085 -26.8083,12.8933 -53.7067,20.0079 -7.6177,2.0145 -18.2484,1.6921 -28.4033,-0.8587 -6.7412,-1.6934 -9.6816,-3.2526 -14.3262,-7.5971 -7.2095,-6.7436 -9.2705,-10.9727 -11.8305,-24.2798 -2.3376,-12.1523 -1.7721,-33.3172 1.1298,-42.2992 0.9995,-3.0937 2.7979,-9 3.9972,-13.125 4.5022,-15.4876 13.2552,-33.9495 24.4153,-51.5021 1.0029,-1.5773 2.8353,-2.6454 4.2975,-2.5011 1.9354,0.1906 2.571,-0.5011 2.633,-2.873 0.1051,-3.9784 2.2405,-9.0274 4.6692,-11.0431 1.6178,-1.3426 2.0059,-0.8018 2.7338,3.8013 1.154,7.2973 6.4566,20.5186 10.7135,26.7151 1.9256,2.8035 5.6476,6.7415 8.2745,8.7506 4.5439,3.4758 5.3852,3.6511 17.2779,3.6511 10.9815,0 13.4869,-0.431 20.625,-3.5431 22.2395,-9.6965 25.8619,-12.3408 41.9952,-30.639 7.1745,-8.1373 10.9842,-14.0477 17.3163,-26.8744 8.2469,-16.706 10.9501,-24.7339 12.4804,-37.0679 -0.9345,-10.862 -2.7319,-8.2904 -2.7209,-14.4909 0.069,-8.97 -3.5929,-16.7366 -9.6625,-20.4878 -3.6203,-2.2374 -9.7374,-3.5287 -14.8773,-3.4607 z m 1.4264,4.651 c 0.5863,-0.015 1.081,0.073 1.4649,0.2856 4.637,0.2813 8.7412,1.8268 13.2458,7.2528 3.441,5.3035 3.6491,6.3751 3.6621,18.75 0.012,12.6019 -0.204,13.6589 -5.4089,26.5301 -2.9817,7.3731 -7.3341,16.5818 -9.6717,20.4639 -2.3378,3.8822 -4.2498,7.7331 -4.2498,8.5565 0,2.2495 -18.1888,21.9318 -25.0123,27.0667 -18.2311,13.7196 -44.6815,19.7764 -54.0801,12.3834 -4.7314,-3.7217 -11.8163,-14.8823 -14.8536,-23.3954 -2.6562,-7.4448 -2.6802,-7.8677 -0.5621,-10.2081 2.1205,-2.3431 2.1024,-2.5502 -0.4413,-5.094 l -2.6513,-2.6531 2.8052,-4.0119 c 8.1702,-11.6874 36.3357,-41.4106 48.4807,-51.1634 7.8362,-6.2926 16.6029,-11.9964 22.262,-13.4692 5.1285,-1.3348 19.3429,-11.1511 25.0104,-11.2939 z m 96.5441,87.8119 c -2.9866,-0.01 -6.8938,1.8447 -7.5311,4.638 -0.7818,3.4275 -30.7149,50.4013 -48.142,73.2642 -4.1725,5.4736 -9.3436,12.734 -11.4917,16.1334 -2.1479,3.3994 -7.3916,11.4126 -11.6528,17.807 -4.2612,6.3944 -9.5482,14.8281 -11.7481,18.7445 -2.2,3.9167 -7.2693,12.448 -11.2665,18.9569 -9.3042,15.1523 -15.8138,32.1834 -14.4818,37.8882 0.5631,2.4111 2.2009,4.6368 4.2645,5.7898 2.8697,1.6036 4.9693,1.2391 14.5917,-2.5305 10.64,-4.1683 51.283,-25.6012 53.3294,-28.1232 0.6101,-0.7517 0.4299,-0.9133 -0.498,-0.4468 -0.8003,0.402 -3.5565,1.3452 -6.1248,2.0966 -4.4321,1.2965 -4.3857,1.2397 0.9429,-1.1243 3.0881,-1.3698 6.2514,-2.1376 7.0276,-1.7065 1.7925,0.9963 26.6496,-10.7542 53.6334,-25.3546 3.707,-2.0057 11.3649,-5.7338 17.016,-8.2837 5.6515,-2.5499 15.0143,-7.3711 20.8081,-10.7135 5.7939,-3.3425 13.2635,-7.2154 16.5986,-8.606 3.3352,-1.3908 8.1892,-3.8895 10.7849,-5.5518 14.0513,-8.9983 49.0853,-34.4857 58.0829,-22.2161 -4.3521,24.3657 -42.0178,48.3878 -59.2292,64.812 -18.7984,17.8854 -25.892,25.119 -32.1569,32.7905 -2.7112,3.3199 -6.0687,7.3799 -7.4616,9.0234 -1.393,1.6437 -6.3806,8.8416 -11.0834,15.9943 -7.04,10.7073 -9.7482,16.0315 -15.3222,30.141 -7.7365,19.5846 -8.6364,22.7975 -8.8587,31.5985 -0.088,3.5021 -0.2554,8.3189 -0.3717,10.7043 -0.2242,4.5899 2.3572,7.0956 3.8104,3.6988 0.4702,-1.1075 2.048,-7.5825 3.501,-14.3921 5.1327,-24.0548 21.143,-54.6222 40.166,-76.6901 1.4105,-1.636 5.2266,-6.1095 8.4815,-9.9426 5.6623,-6.6684 21.1772,-23.2359 25.4058,-27.1271 25.4014,-25.4267 45.9712,-46.0633 68.1409,-69.516 2.8835,-3.039 6.1364,-7.5822 7.2291,-10.0983 1.76,-4.0531 1.2773,-6.7036 -1.1555,-7.9724 -0.1674,-0.087 -0.3435,-0.1693 -0.5291,-0.2434 -5.7532,-2.3006 -20.267,1.6613 -40.6733,11.6509 -7.6437,3.7417 -16.8139,8.2339 -20.3778,9.9829 -5.7668,2.8299 -14.6217,7.6432 -31.6077,17.1827 -5.2008,2.9208 -20.3612,10.7918 -22.0403,11.4422 -2.7396,1.061 -19.572,9.791 -26.4258,13.7055 -10.0153,5.7202 -10.2788,5.8549 -30.0549,15.4669 -16.939,8.2332 -30.682,15.2895 -38.3113,19.6692 -2.4961,1.4328 -8.6244,4.2459 -13.6174,6.2512 -11.6158,4.665 -17.6694,8.3612 -18.0854,11.0412 -0.2392,1.5399 -1.1589,1.8227 -3.3417,1.0309 -1.9018,-0.6901 -5.6925,0.056 -10.296,2.0252 -4.0075,1.7135 -7.6082,2.6517 -8.0017,2.0856 -1.9687,-2.8314 3.7246,-14.8382 22.511,-47.4665 3.5507,-6.1668 20.1389,-32.1372 23.8513,-37.3406 2.041,-2.8612 7.6229,-10.8624 12.4017,-17.7814 4.7792,-6.919 12.1019,-16.9224 16.2744,-22.2308 9.1093,-11.5895 36.8223,-56.143 36.5625,-57.9365 -0.2236,-1.5428 -1.6851,-2.2167 -3.4772,-2.221 z m -69.6057,173.0328 c 0.099,0.011 0.1829,0.034 0.2491,0.066 0.076,0.033 0.1289,0.089 0.1538,0.152 0.1994,0.5054 -1.3303,1.5454 -3.3985,2.3126 l -3.7609,1.3953 3.3984,-2.3145 c 1.2309,-1.2175 2.6644,-1.6861 3.3581,-1.6113 z"
       id="path4201"
       inkscape:connector-curvature="0"
       sodipodi:nodetypes="ccccccsccccccccccsccscsccccccccccccssccccscccccccccccsccccccccscsccscccccccscccccsscccscccccccccccccccsscccccccsccccscccccsscccccccccccccsccccccccccccccccccccccscccsccccsssccsccccccsssccsccccsccccssccccccccccccsssccssccccccccsscccccccccccccccccccscccsccccscccccccccccccccccsccccsccccccscccccscccccsscscccccscccccccccsccscccccccsccccccsccscscsscccssccccccccccccscccccccccccccccccccsccccccccccccsccccccsccccccccccccscccccccccccsscccccccccssccscccccsscssccsccccccscscccsccccccscsccccccccccsccccccccccccscccccsccccccccccccccccccccccscccccccccccccccsccccsccccccscccccccccccccccccccccccccccccccccccccscccccccscccccccccccccccccccccccccccscccccscccccsssccccccccccscsccccccscccccccccscccccccccccccccccccccccccccscccccccccccccsccccccccccccccsccccccccccccccccccccccccsccccccccccccccccccccccccccccccccc" />
  </g>
</svg>
